<svg width="25" height="24" viewBox="0 0 25 24" fill="none" xmlns="http://www.w3.org/2000/svg">
<path d="M22.2466 12.731L20.181 15.2046C18.1358 17.6531 15.4088 19 12.4982 19C9.58758 19 6.86065 17.6531 4.81545 15.2046L2.74983 12.731C2.28854 12.1152 2.5743 11.4592 2.74983 11.269L4.81545 8.79542C6.86065 6.34692 9.58758 5 12.4982 5C15.4088 5 18.1358 6.34692 20.181 8.79542L22.2466 11.269C22.4099 11.4592 22.7242 12.0901 22.2466 12.731ZM12.4982 8.50501C10.9266 8.50501 9.64881 10.0722 9.64881 12C9.64881 13.9278 10.9266 15.495 12.4982 15.495C14.0699 15.495 15.3476 13.9278 15.3476 12C15.3476 10.0722 14.0699 8.50501 12.4982 8.50501ZM4.52561 12L5.98296 13.7425C7.08517 15.0644 8.42414 16.0057 9.88967 16.5165C8.73847 15.51 7.98734 13.8627 7.98734 12.005C7.98734 10.1474 8.73847 8.49499 9.88967 7.49356C8.42414 8.00429 7.08517 8.94563 5.98296 10.2625L4.52561 12ZM19.0175 10.2575C17.9153 8.94063 16.5764 7.99928 15.1108 7.48855C16.262 8.49499 17.0132 10.1423 17.0132 12C17.0132 13.8627 16.262 15.51 15.1108 16.5114C16.5764 16.0007 17.9153 15.0594 19.0175 13.7375L20.4708 11.995L19.0175 10.2575Z" fill="#8C8E93"/>
</svg>
