<svg width="30" height="30" viewBox="0 0 30 30" fill="none" xmlns="http://www.w3.org/2000/svg">
<path fill-rule="evenodd" clip-rule="evenodd" d="M30 15.0012C30 17.0691 29.6338 18.9905 28.9014 20.7581C28.7817 21.0486 28.6523 21.3318 28.5132 21.6101C27.8003 23.0481 26.8311 24.3811 25.603 25.6042C25.1953 26.0144 24.7729 26.3953 24.3408 26.7468C23.9062 27.1008 23.4595 27.4255 23.0029 27.7185C20.647 29.2395 17.9785 29.9988 15 29.9988C12.9321 29.9988 11.0132 29.6326 9.24316 28.9001C8.95264 28.7805 8.66943 28.6511 8.39111 28.512C6.95312 27.7991 5.62012 26.8298 4.39697 25.6018C3.98682 25.1941 3.60596 24.7717 3.25439 24.3396C2.90039 23.905 2.57568 23.4583 2.28271 23.0017C0.759277 20.6506 0 17.9797 0 15.0012C0 12.9333 0.366211 11.0144 1.09863 9.24439C1.21826 8.95386 1.34766 8.67065 1.48682 8.39233C2.19971 6.95435 3.16895 5.62134 4.39697 4.39819C4.80469 3.98804 5.22705 3.60718 5.65918 3.25562C6.09375 2.90161 6.54053 2.5769 6.99707 2.28394C9.35059 0.760498 12.0215 0.0012207 15 0.0012207C17.0679 0.0012207 18.9868 0.367432 20.7568 1.09985C21.0474 1.21948 21.3306 1.34888 21.6089 1.48804C23.0469 2.20093 24.3799 3.17017 25.603 4.39819C26.0132 4.80591 26.394 5.22827 26.7456 5.6604C27.0996 6.09497 27.4243 6.54175 27.7173 6.99829C29.2407 9.35181 30 12.0227 30 15.0012ZM15 2.677C15.0269 2.677 15.0537 2.677 15.0781 2.677V27.3254C15.0513 27.3254 15.0244 27.3254 15 27.3254C8.19336 27.3254 2.67578 21.8079 2.67578 15.0012C2.67578 8.19458 8.19336 2.677 15 2.677Z" fill="black"/>
</svg>
